<svg
	width="128"
	height="128"
	viewBox="0 0 128 128"
	xmlns="http://www.w3.org/2000/svg"
>
	<path
		fill-rule="evenodd"
		clip-rule="evenodd"
		d="M39.6656 38.8184V22.0306L64.8472 22.0306V22.0309C70.3587 22.0309 75.8162 23.1164 80.9081 25.2256C84.2057 26.5915 87.308 28.3693 90.1435 30.5111L98.1687 22.486L121.91 22.486L101.262 43.1342C102.148 44.6808 102.937 46.2855 103.622 47.9393C105.731 53.0312 106.817 58.4887 106.817 64.0002C106.817 69.5117 105.731 74.9693 103.622 80.0612C102.931 81.7301 102.134 83.3489 101.238 84.9085L121.91 105.581L98.1687 105.581L90.1057 97.5179C87.2804 99.647 84.191 101.415 80.9081 102.775C75.8162 104.884 70.3586 105.97 64.8471 105.97V105.97H39.6656V89.1818H64.8472V89.1819C68.1541 89.1819 71.4286 88.5305 74.4837 87.265C75.7176 86.754 76.9059 86.1468 78.0382 85.4504L68.4919 75.9042L68.4918 75.9043L56.6211 64.0336L56.6212 64.0335L68.4919 52.1627L78.0793 42.5754C76.9346 41.8684 75.7325 41.2527 74.4837 40.7354C71.4286 39.4699 68.1541 38.8186 64.8472 38.8186V38.8184L39.6656 38.8184ZM88.6408 55.7553L80.3627 64.0334L88.6236 72.2944C89.5527 69.6312 90.0288 66.8276 90.0288 64.0002C90.0288 61.1903 89.5585 58.4038 88.6408 55.7553ZM39.6655 22.0309H22.8778V105.97H39.6655V22.0309ZM6.08997 22.0306C6.08997 31.3023 13.6061 38.8184 22.8777 38.8184L22.8777 22.0306L6.08997 22.0306ZM22.8777 55.6063C13.6061 55.6063 6.08997 48.0902 6.08997 38.8186H22.8777L22.8777 55.6063Z"
		fill="white"
	/>
</svg>
